<svg width="21" height="25" viewBox="0 0 21 25" fill="none" xmlns="http://www.w3.org/2000/svg">
    <g id="Apple svg" clip-path="url(#clip0_325_5905)">
        <g id="Group">
            <path id="Vector"
                d="M19.7981 8.59442C18.1595 9.60696 17.1475 11.3427 17.1475 13.2714C17.1475 15.4411 18.4487 17.4179 20.4246 18.2376C20.039 19.4912 19.4607 20.6484 18.7378 21.7092C17.6776 23.2039 16.5691 24.7468 14.9306 24.7468C13.292 24.7468 12.8101 23.7825 10.8824 23.7825C9.00287 23.7825 8.32818 24.795 6.78601 24.795C5.24384 24.795 4.1969 23.6309 3.12627 22.1696C1.62693 20.0697 0.626236 16.8113 0.626236 13.8754C0.626236 10.4101 2.47608 8.21514 4.63702 8.21514C6.05334 8.21514 7.16787 9.03773 8.11644 9.03773C9.11062 9.03773 10.4046 8.12449 11.9717 8.12449C14.5551 8.12449 17.2104 9.64259 19.7981 8.59442ZM11.4161 3.4203C11.7607 2.11068 11.9082 1.0892 11.9082 0.395516C11.9082 0.263596 11.8892 0.131073 11.8607 0C10.7864 0.042477 9.59415 0.695619 8.73432 1.64886C8.06839 2.3701 7.45483 3.53741 7.45483 4.76328C7.45483 4.91446 7.47381 5.06525 7.49285 5.20661C7.66795 5.22849 7.87001 5.24288 8.10129 5.24288C9.27974 5.24288 10.7576 4.40261 11.4161 3.4203Z"
                fill="white" />
        </g>
    </g>
    <defs>
        <clipPath id="clip0_325_5905">
            <rect width="21" height="25" fill="white" />
        </clipPath>
    </defs>
</svg>
  