<svg width="25" height="24" viewBox="0 0 25 24" fill="none" xmlns="http://www.w3.org/2000/svg">
<g id="Iconsax/Broken/receipt1">
<path id="Vector" d="M20.8335 7.04C20.8335 3.01 19.8935 2 16.1135 2H8.5535C4.7735 2 3.8335 3.01 3.8335 7.04V18.3C3.8335 20.96 5.2935 21.59 7.0635 19.69L7.0735 19.68C7.8935 18.81 9.1435 18.88 9.8535 19.83L10.8635 21.18C11.6735 22.25 12.9835 22.25 13.7935 21.18L14.8035 19.83C15.5235 18.87 16.7735 18.8 17.5935 19.68C19.3735 21.58 20.8235 20.95 20.8235 18.29V11M8.3335 7H16.3335M9.3335 11H15.3335" stroke="#8E6CEF" stroke-width="1.5" stroke-linecap="round" stroke-linejoin="round"/>
</g>
</svg>
