<svg width="17" height="18" viewBox="0 0 17 18" fill="none" xmlns="http://www.w3.org/2000/svg">
<g id="share-variant">
<path id="Vector" d="M12.75 11.89C12.2117 11.89 11.73 12.1025 11.3617 12.4354L6.31125 9.49584C6.34667 9.33292 6.375 9.17 6.375 9C6.375 8.83 6.34667 8.66709 6.31125 8.50417L11.305 5.59292C11.6875 5.94709 12.1904 6.16667 12.75 6.16667C13.3136 6.16667 13.8541 5.94279 14.2526 5.54427C14.6511 5.14576 14.875 4.60526 14.875 4.04167C14.875 3.47809 14.6511 2.93758 14.2526 2.53907C13.8541 2.14056 13.3136 1.91667 12.75 1.91667C12.1864 1.91667 11.6459 2.14056 11.2474 2.53907C10.8489 2.93758 10.625 3.47809 10.625 4.04167C10.625 4.21167 10.6533 4.37459 10.6888 4.5375L5.695 7.44875C5.3125 7.09459 4.80958 6.875 4.25 6.875C3.68641 6.875 3.14591 7.09889 2.7474 7.4974C2.34888 7.89592 2.125 8.43642 2.125 9C2.125 9.56359 2.34888 10.1041 2.7474 10.5026C3.14591 10.9011 3.68641 11.125 4.25 11.125C4.80958 11.125 5.3125 10.9054 5.695 10.5513L10.7383 13.4908C10.7029 13.6396 10.6817 13.7954 10.6817 13.9583C10.6817 15.0988 11.6096 16.0196 12.75 16.0196C13.8904 16.0196 14.8183 15.0988 14.8183 13.9583C14.8183 13.4098 14.6004 12.8837 14.2125 12.4958C13.8246 12.1079 13.2986 11.89 12.75 11.89Z" fill="#FCF8F8"/>
</g>
</svg>